<svg xmlns="http://www.w3.org/2000/svg" width="219.485" height="187.31" viewBox="0 0 58.072 49.559"  fill="#fff" xmlns:v="https://vecta.io/nano"><title>Abort-Mission icon</title><path d="M11.77 46.648l-2.34-.57c-2.477-.6-4.57-1.45-6-2.437-1.355-.934-1.617-1.9-1.012-3.693.127-.378.775-1.75 1.44-3.05l4.268-8.77 5.108-10.598 3.086-6.47c.32-.76.585-1.078.9-1.078.124 0 .63.23 1.123.512 1.013.58 1.888.892 3.25 1.164 4.64.927 11.33.87 15.468-.134 1.183-.287 2-.6 2.923-1.135.4-.224.82-.407.952-.407.308 0 .537.317 1 1.383.416.96 1.927 4.123 3.63 7.598l6.758 14.032c1.218 2.44 3.424 7.103 3.56 7.53.216.672.158 1.435-.152 2.006-.862 1.586-4.65 3.2-9.593 4.117l-1.657.285c-.285 0-.766-.612-1.125-1.428a125.33 125.33 0 0 0-1.21-2.595l-1.277-2.73c-.245-.55-.583-1.162-.753-1.36-.375-.438-1.027-.804-1.778-.997-.762-.196-4.74-.85-6.4-1.053-1.815-.22-4.696-.222-6.22-.002-1.482.214-5.186.878-5.887 1.057-1.187.302-1.916.886-2.37 1.894l-2.903 6.22c-.5 1.086-.86 1.18-2.78.7zm22.25-15.284c2.588-.317 4.047-.767 4.494-1.386.257-.355.234-.436-1.426-5.075-2.406-6.722-2.148-6.1-2.774-6.678-.862-.794-2.222-1.216-4.163-1.3-1.32-.05-3.3.124-4.47.396-1.215.282-2.13.913-2.514 1.732-.226.483-1.157 3.03-2.137 5.842l-1.113 3.163c-.236.66-.43 1.337-.43 1.506 0 .62.874 1.18 2.288 1.464.723.146 2.965.37 4.962.497 1.32.084 6.128-.028 7.283-.17zm-7.796-20.037c-1.822-.166-4.74-.67-6.16-1.064-1.256-.35-2.277-1.026-2.4-1.593-.086-.4.27-1.097 1.02-2.023a10.69 10.69 0 0 1 3.6-2.925c1.473-.744 4.22-1.424 6.3-1.558 2.987-.193 6.522.8 8.873 2.516.7.5 2.054 1.907 2.517 2.6.498.746.624 1.203.434 1.572-.18.35-.498.573-1.47 1.035-2.065.98-4.84 1.408-9.433 1.45-1.57.015-3.043.01-3.274-.012zM23.412 47.86c-2.543-.08-6.095-.398-7.594-.683-.277-.053-.394-.043-.538-.096-.274-.1.706-1.932.76-2s1.48.24 2.542.357l5.164.382 5.23.14 5.518-.035 4.348-.328 3.253-.48s.825 1.668.8 1.844c-.02.135.08.12-1.478.35-3.068.45-6.68.618-12.77.593l-5.238-.044z"/></svg>
